<svg width="19" height="18" viewBox="0 0 19 18" fill="none" xmlns="http://www.w3.org/2000/svg">
<path d="M0 6.10625C0 2.93802 2.10208 0 4.98073 0C6.97812 0 8.4599 1.31771 9.375 3.18802C10.2896 1.31823 11.7719 0 13.7698 0C16.6484 0 18.75 2.93854 18.75 6.10625C18.7496 6.65901 18.6884 7.21006 18.5677 7.74948C18.0554 7.11774 17.4084 6.60847 16.674 6.25893C15.9395 5.90938 15.1363 5.72838 14.3229 5.72917C11.3026 5.72917 8.85417 8.1776 8.85417 11.1979C8.85393 12.2244 9.14258 13.2302 9.68711 14.1003C10.2316 14.9704 11.0101 15.6697 11.9333 16.1182C10.4807 17.1396 9.375 17.7083 9.375 17.7083C9.375 17.7083 0 13.1792 0 6.10625Z" fill="#EF4444"/>
<path d="M15.625 11.4584C15.6248 11.6027 15.5946 11.7454 15.5363 11.8775C15.478 12.0095 15.3929 12.128 15.2865 12.2255C15.18 12.3229 15.0544 12.3971 14.9177 12.4434C14.781 12.4898 14.6362 12.5072 14.4924 12.4946C14.3486 12.482 14.209 12.4396 14.0824 12.3702C13.9559 12.3008 13.8451 12.2059 13.7572 12.0914C13.6693 11.9769 13.6061 11.8455 13.5717 11.7053C13.5373 11.5651 13.5324 11.4193 13.5573 11.2771L12.2969 10.0167L13.0339 9.28027L14.2313 10.4782C14.342 10.4372 14.4594 10.4167 14.5833 10.4167C14.8596 10.4167 15.1246 10.5265 15.3199 10.7218C15.5153 10.9172 15.625 11.1821 15.625 11.4584Z" fill="#EF4444"/>
<path fill-rule="evenodd" clip-rule="evenodd" d="M18.75 11.1981C18.75 12.3722 18.2836 13.4983 17.4533 14.3285C16.6231 15.1587 15.4971 15.6252 14.3229 15.6252C13.1488 15.6252 12.0227 15.1587 11.1925 14.3285C10.3623 13.4983 9.89583 12.3722 9.89583 11.1981C9.89583 10.0239 10.3623 8.8979 11.1925 8.06766C12.0227 7.23742 13.1488 6.771 14.3229 6.771C15.4971 6.771 16.6231 7.23742 17.4533 8.06766C18.2836 8.8979 18.75 10.0239 18.75 11.1981ZM17.7083 11.1981C17.7083 12.0959 17.3517 12.957 16.7168 13.5919C16.0819 14.2268 15.2208 14.5835 14.3229 14.5835C13.425 14.5835 12.564 14.2268 11.9291 13.5919C11.2942 12.957 10.9375 12.0959 10.9375 11.1981C10.9375 10.3002 11.2942 9.43912 11.9291 8.80423C12.564 8.16934 13.425 7.81266 14.3229 7.81266C15.2208 7.81266 16.0819 8.16934 16.7168 8.80423C17.3517 9.43912 17.7083 10.3002 17.7083 11.1981Z" fill="#EF4444"/>
</svg>
