<svg width="19" height="23" viewBox="0 0 19 23" fill="none" xmlns="http://www.w3.org/2000/svg">
<path d="M17.6667 21.8333V18.7083C17.6667 15.7625 17.6667 14.2885 16.751 13.374C15.8365 12.4583 14.3625 12.4583 11.4167 12.4583L9.33333 14.5417L7.25 12.4583C4.30417 12.4583 2.83021 12.4583 1.91563 13.374C1 14.2885 1 15.7625 1 18.7083V21.8333M13.5 15.5833V18.7083M15.0625 17.1458H11.9375M12.9792 5.6875V4.64583C12.9792 4.16706 12.8849 3.69297 12.7016 3.25063C12.5184 2.8083 12.2499 2.40639 11.9113 2.06784C11.5728 1.72929 11.1709 1.46074 10.7285 1.27752C10.2862 1.0943 9.81211 1 9.33333 1C8.85456 1 8.38047 1.0943 7.93813 1.27752C7.4958 1.46074 7.09389 1.72929 6.75534 2.06784C6.41679 2.40639 6.14824 2.8083 5.96502 3.25063C5.7818 3.69297 5.6875 4.16706 5.6875 4.64583V5.6875C5.6875 6.16628 5.7818 6.64037 5.96502 7.0827C6.14824 7.52503 6.41679 7.92695 6.75534 8.26549C7.09389 8.60404 7.4958 8.87259 7.93813 9.05581C8.38047 9.23903 8.85456 9.33333 9.33333 9.33333C9.81211 9.33333 10.2862 9.23903 10.7285 9.05581C11.1709 8.87259 11.5728 8.60404 11.9113 8.26549C12.2499 7.92695 12.5184 7.52503 12.7016 7.0827C12.8849 6.64037 12.9792 6.16628 12.9792 5.6875Z" stroke="black" stroke-width="1.5" stroke-linecap="round" stroke-linejoin="round"/>
</svg>
