<svg width="74" height="98" viewBox="0 0 74 98" fill="none" xmlns="http://www.w3.org/2000/svg">
<g clip-path="url(#clip0_51_3869)">
<path d="M4.59375 98H68.9062C71.4389 98 73.5 95.9389 73.5 93.4062V29.0938C73.5 29.0417 73.4755 28.9988 73.4724 28.9498C73.4643 28.8824 73.451 28.8161 73.4326 28.7507C73.3834 28.5384 73.2895 28.3389 73.157 28.1658C73.1356 28.1382 73.1386 28.1046 73.1172 28.077L48.6172 0.5145L48.5866 0.496125C48.3991 0.301467 48.1635 0.159882 47.9036 0.08575C47.8485 0.0694167 47.7913 0.0581875 47.7321 0.0520625C47.6433 0.03675 47.5606 0 47.4688 0H4.59375C2.06106 0 0 2.06106 0 4.59375V93.4062C0 95.9389 2.06106 98 4.59375 98ZM49 5.55844L68.5602 27.5625H50.5312C49.8575 27.5625 49 26.2763 49 25.2656V5.55844ZM3.0625 4.59375C3.0625 4.18764 3.22383 3.79816 3.51099 3.51099C3.79816 3.22383 4.18764 3.0625 4.59375 3.0625H45.9375V25.2656C45.9375 27.7432 47.9434 30.625 50.5312 30.625H70.4375V93.4062C70.4375 93.8124 70.2762 94.2018 69.989 94.489C69.7018 94.7762 69.3124 94.9375 68.9062 94.9375H4.59375C3.73625 94.9375 3.0625 94.2637 3.0625 93.4062V4.59375Z" fill="black"/>
<path d="M16.8438 42.875H56.6563C57.0624 42.875 57.4518 42.7137 57.739 42.4265C58.0262 42.1393 58.1875 41.7499 58.1875 41.3438C58.1875 40.9376 58.0262 40.5482 57.739 40.261C57.4518 39.9738 57.0624 39.8125 56.6563 39.8125H16.8438C16.4376 39.8125 16.0482 39.9738 15.761 40.261C15.4738 40.5482 15.3125 40.9376 15.3125 41.3438C15.3125 41.7499 15.4738 42.1393 15.761 42.4265C16.0482 42.7137 16.4376 42.875 16.8438 42.875ZM16.8438 55.125H56.6563C57.0624 55.125 57.4518 54.9637 57.739 54.6765C58.0262 54.3893 58.1875 53.9999 58.1875 53.5938C58.1875 53.1876 58.0262 52.7982 57.739 52.511C57.4518 52.2238 57.0624 52.0625 56.6563 52.0625H16.8438C16.4376 52.0625 16.0482 52.2238 15.761 52.511C15.4738 52.7982 15.3125 53.1876 15.3125 53.5938C15.3125 53.9999 15.4738 54.3893 15.761 54.6765C16.0482 54.9637 16.4376 55.125 16.8438 55.125ZM16.8438 30.625H35.2188C35.6249 30.625 36.0143 30.4637 36.3015 30.1765C36.5887 29.8893 36.75 29.4999 36.75 29.0938C36.75 28.6876 36.5887 28.2982 36.3015 28.011C36.0143 27.7238 35.6249 27.5625 35.2188 27.5625H16.8438C16.4376 27.5625 16.0482 27.7238 15.761 28.011C15.4738 28.2982 15.3125 28.6876 15.3125 29.0938C15.3125 29.4999 15.4738 29.8893 15.761 30.1765C16.0482 30.4637 16.4376 30.625 16.8438 30.625ZM16.8438 67.375H56.6563C57.0624 67.375 57.4518 67.2137 57.739 66.9265C58.0262 66.6393 58.1875 66.2499 58.1875 65.8438C58.1875 65.4376 58.0262 65.0482 57.739 64.761C57.4518 64.4738 57.0624 64.3125 56.6563 64.3125H16.8438C16.4376 64.3125 16.0482 64.4738 15.761 64.761C15.4738 65.0482 15.3125 65.4376 15.3125 65.8438C15.3125 66.2499 15.4738 66.6393 15.761 66.9265C16.0482 67.2137 16.4376 67.375 16.8438 67.375ZM16.8438 79.625H56.6563C57.0624 79.625 57.4518 79.4637 57.739 79.1765C58.0262 78.8893 58.1875 78.4999 58.1875 78.0938C58.1875 77.6876 58.0262 77.2982 57.739 77.011C57.4518 76.7238 57.0624 76.5625 56.6563 76.5625H16.8438C16.4376 76.5625 16.0482 76.7238 15.761 77.011C15.4738 77.2982 15.3125 77.6876 15.3125 78.0938C15.3125 78.4999 15.4738 78.8893 15.761 79.1765C16.0482 79.4637 16.4376 79.625 16.8438 79.625Z" fill="black"/>
</g>
<defs>
<clipPath id="clip0_51_3869">
<rect width="73.5" height="98" fill="white"/>
</clipPath>
</defs>
</svg>
