<svg width="21" height="20" viewBox="0 0 21 20" fill="none" xmlns="http://www.w3.org/2000/svg">
<path d="M5.59021 8.75C6.28057 8.75 6.84021 9.30964 6.84021 10C6.84021 10.6904 6.28057 11.25 5.59021 11.25C4.89985 11.25 4.34021 10.6904 4.34021 10C4.34021 9.30964 4.89985 8.75 5.59021 8.75Z" fill="black"/>
<path d="M10.5902 8.75C11.2806 8.75 11.8402 9.30964 11.8402 10C11.8402 10.6904 11.2806 11.25 10.5902 11.25C9.89985 11.25 9.34021 10.6904 9.34021 10C9.34021 9.30964 9.89985 8.75 10.5902 8.75Z" fill="black"/>
<path d="M16.8402 10C16.8402 9.30964 16.2806 8.75 15.5902 8.75C14.8999 8.75 14.3402 9.30964 14.3402 10C14.3402 10.6904 14.8999 11.25 15.5902 11.25C16.2806 11.25 16.8402 10.6904 16.8402 10Z" fill="black"/>
</svg>
