<svg width="45" height="38" viewBox="0 0 45 38" fill="none" xmlns="http://www.w3.org/2000/svg">
<path d="M10.9094 31.5814C14.0567 34.6081 18.1981 36.4916 22.6278 36.911C27.0574 37.3303 31.5013 36.2595 35.2019 33.8811C38.9026 31.5026 41.6311 27.9637 42.9225 23.8674C44.2139 19.7711 43.9883 15.3709 42.284 11.4167C40.5798 7.46246 37.5024 4.19888 33.5764 2.18213C29.6503 0.165372 25.1185 -0.479758 20.7532 0.356676C16.388 1.19311 12.4594 3.45935 9.63698 6.76919C6.81456 10.079 5.27296 14.2276 5.2749 18.5081V22.6109" stroke="black" stroke-linecap="round" stroke-linejoin="round"/>
<path d="M1 18.4996L5.27501 22.6107L9.55002 18.4996M22.375 10.2773V20.5551H33.0626" stroke="black" stroke-linecap="round" stroke-linejoin="round"/>
</svg>
