<svg width="34" height="34" viewBox="0 0 34 34" fill="none" xmlns="http://www.w3.org/2000/svg">
<path d="M20.7818 3.81836C20.5859 3.81836 20.3867 3.87148 20.2041 3.99434L8.43359 11.6875H2.98828C2.69609 11.6875 2.45703 11.9266 2.45703 12.2188V21.7812C2.45703 22.0734 2.69609 22.3125 2.98828 22.3125H8.43359L20.2041 30.0057C20.3867 30.1252 20.5893 30.1816 20.7818 30.1816C21.3363 30.1816 21.8477 29.74 21.8477 29.1158V4.88418C21.8477 4.25996 21.3363 3.81836 20.7818 3.81836ZM19.457 26.6621L9.7418 20.3104L9.14414 19.9219H4.84766V14.0781H9.14414L9.73848 13.6896L19.457 7.33789V26.6621ZM31.0117 15.8047H26.7617C26.4695 15.8047 26.2305 16.0437 26.2305 16.3359V17.6641C26.2305 17.9563 26.4695 18.1953 26.7617 18.1953H31.0117C31.3039 18.1953 31.543 17.9563 31.543 17.6641V16.3359C31.543 16.0437 31.3039 15.8047 31.0117 15.8047ZM29.6205 24.4973L25.9582 22.3822C25.898 22.3478 25.8317 22.3255 25.7629 22.3167C25.6941 22.3079 25.6243 22.3127 25.5574 22.3309C25.4905 22.3491 25.4278 22.3803 25.3729 22.4227C25.3181 22.4651 25.2721 22.5179 25.2377 22.5781L24.577 23.7236C24.4309 23.976 24.5172 24.3014 24.7695 24.4475L28.4318 26.5625C28.492 26.597 28.5584 26.6192 28.6271 26.628C28.6959 26.6368 28.7658 26.632 28.8327 26.6138C28.8996 26.5956 28.9622 26.5644 29.0171 26.522C29.0719 26.4796 29.1179 26.4268 29.1523 26.3666L29.8131 25.2211C29.9592 24.9688 29.8695 24.6434 29.6205 24.4973ZM25.2344 11.4219C25.2688 11.4821 25.3148 11.5349 25.3696 11.5773C25.4245 11.6197 25.4871 11.6509 25.5541 11.6691C25.621 11.6873 25.6908 11.6921 25.7596 11.6833C25.8283 11.6745 25.8947 11.6522 25.9549 11.6178L29.6172 9.50273C29.8695 9.35664 29.9559 9.03125 29.8098 8.77891L29.1523 7.63672C29.1179 7.57654 29.0719 7.52374 29.0171 7.48133C28.9622 7.43891 28.8996 7.40772 28.8327 7.38953C28.7658 7.37134 28.6959 7.36651 28.6271 7.37531C28.5584 7.38411 28.492 7.40637 28.4318 7.44082L24.7695 9.55586C24.6483 9.62655 24.5599 9.74238 24.5238 9.87803C24.4878 10.0137 24.5069 10.1581 24.577 10.2797L25.2344 11.4219Z" fill="#FFCC00"/>
</svg>
