<svg width="97" height="97" viewBox="0 0 97 97" fill="none" xmlns="http://www.w3.org/2000/svg">
<path d="M48.5 0.875C49.7961 0.875171 51.0471 1.35102 52.0156 2.21229C52.9842 3.07355 53.603 4.26034 53.7546 5.54754L53.7917 6.16667V90.8333C53.7902 92.1821 53.2737 93.4793 52.3478 94.4601C51.422 95.4408 50.1565 96.031 48.8101 96.11C47.4637 96.1891 46.1379 95.751 45.1036 94.8854C44.0694 94.0197 43.4047 92.7918 43.2454 91.4525L43.2083 90.8333V6.16667C43.2083 4.76323 43.7658 3.41727 44.7582 2.42489C45.7506 1.43251 47.0966 0.875 48.5 0.875ZM27.3333 16.75C28.7368 16.75 30.0827 17.3075 31.0751 18.2999C32.0675 19.2923 32.625 20.6382 32.625 22.0417V74.9583C32.625 76.3618 32.0675 77.7077 31.0751 78.7001C30.0827 79.6925 28.7368 80.25 27.3333 80.25C25.9299 80.25 24.5839 79.6925 23.5916 78.7001C22.5992 77.7077 22.0417 76.3618 22.0417 74.9583V22.0417C22.0417 20.6382 22.5992 19.2923 23.5916 18.2999C24.5839 17.3075 25.9299 16.75 27.3333 16.75ZM69.6667 16.75C71.0701 16.75 72.4161 17.3075 73.4084 18.2999C74.4008 19.2923 74.9583 20.6382 74.9583 22.0417V74.9583C74.9583 76.3618 74.4008 77.7077 73.4084 78.7001C72.4161 79.6925 71.0701 80.25 69.6667 80.25C68.2632 80.25 66.9173 79.6925 65.9249 78.7001C64.9325 77.7077 64.375 76.3618 64.375 74.9583V22.0417C64.375 20.6382 64.9325 19.2923 65.9249 18.2999C66.9173 17.3075 68.2632 16.75 69.6667 16.75ZM6.16667 32.625C7.5701 32.625 8.91606 33.1825 9.90844 34.1749C10.9008 35.1673 11.4583 36.5132 11.4583 37.9167V59.0833C11.4583 60.4868 10.9008 61.8327 9.90844 62.8251C8.91606 63.8175 7.5701 64.375 6.16667 64.375C4.76323 64.375 3.41727 63.8175 2.42489 62.8251C1.43251 61.8327 0.875 60.4868 0.875 59.0833V37.9167C0.875 36.5132 1.43251 35.1673 2.42489 34.1749C3.41727 33.1825 4.76323 32.625 6.16667 32.625ZM90.8333 32.625C92.1294 32.6252 93.3804 33.101 94.349 33.9623C95.3175 34.8236 95.9363 36.0103 96.088 37.2975L96.125 37.9167V59.0833C96.1235 60.4321 95.6071 61.7293 94.6812 62.7101C93.7553 63.6908 92.4899 64.281 91.1434 64.36C89.797 64.4391 88.4712 64.001 87.437 63.1354C86.4027 62.2697 85.738 61.0418 85.5787 59.7025L85.5417 59.0833V37.9167C85.5417 36.5132 86.0992 35.1673 87.0916 34.1749C88.0839 33.1825 89.4299 32.625 90.8333 32.625Z" fill="black"/>
</svg>
