<svg width="19" height="19" viewBox="0 0 19 19" fill="none" xmlns="http://www.w3.org/2000/svg">
<path fill-rule="evenodd" clip-rule="evenodd" d="M16.2295 1.46125e-07H2.0428C1.76971 2.96187e-05 1.4994 0.0548089 1.24784 0.1611C0.996287 0.267391 0.768594 0.423036 0.578224 0.618834C0.387854 0.814632 0.238671 1.04661 0.139493 1.30105C0.0403145 1.5555 -0.00684543 1.82724 0.000801069 2.10022L0.398168 16.4014C0.413066 16.9332 0.634872 17.4383 1.01641 17.8091C1.39795 18.18 1.90911 18.3874 2.44119 18.3872H15.8322C16.3642 18.3871 16.8753 18.1795 17.2566 17.8084C17.638 17.4374 17.8595 16.9322 17.8742 16.4003L18.2715 2.0992C18.279 1.82622 18.2317 1.5545 18.1324 1.30011C18.0331 1.04572 17.8838 0.813814 17.6934 0.618112C17.5029 0.422409 17.2751 0.266877 17.0235 0.160711C16.7719 0.0545439 16.5026 -0.000103135 16.2295 1.46125e-07ZM16.2285 2.04302H14.5124L13.7861 8.22417C13.7774 8.29761 13.7532 8.36836 13.715 8.43167C13.6768 8.49499 13.6256 8.54941 13.5646 8.59129C13.5037 8.63318 13.4345 8.66155 13.3617 8.67452C13.2889 8.68749 13.2142 8.68475 13.1425 8.66649C11.8326 8.33676 10.4869 8.17069 9.13616 8.17208C7.75406 8.17208 6.41179 8.34369 5.1298 8.66649C5.05815 8.68475 4.98342 8.68749 4.91062 8.67452C4.83783 8.66155 4.76864 8.63318 4.7077 8.59129C4.64677 8.54941 4.59548 8.49499 4.55729 8.43167C4.5191 8.36836 4.49487 8.29761 4.48625 8.22417L3.75689 2.04302H2.0428L2.44119 16.3442H15.8322L16.2285 2.04302ZM5.81523 2.04302L6.32088 6.34357C6.86569 6.25981 7.4173 6.20022 7.97573 6.16481L8.92062 3.33319C8.94948 3.23425 8.998 3.14215 9.06328 3.06241C9.12856 2.98266 9.20926 2.91691 9.30054 2.86908C9.39183 2.82125 9.49183 2.79233 9.59455 2.78405C9.69727 2.77577 9.80061 2.7883 9.89838 2.82089C9.99615 2.85348 10.0863 2.90546 10.1635 2.97371C10.2408 3.04197 10.3034 3.12511 10.3477 3.21814C10.3921 3.31118 10.4172 3.4122 10.4215 3.51517C10.4259 3.61813 10.4095 3.72092 10.3732 3.81738L9.60095 6.13519C10.3984 6.15562 11.1816 6.22508 11.9504 6.34357L12.4581 2.04302H5.81523Z" fill="#3B82F6"/>
</svg>
